<?xml version="1.0" standalone="no"?>
<!DOCTYPE svg PUBLIC "-//W3C//DTD SVG 20010904//EN"
 "http://www.w3.org/TR/2001/REC-SVG-20010904/DTD/svg10.dtd">
<svg version="1.0" xmlns="http://www.w3.org/2000/svg"
 width="914.000000pt" height="609.000000pt" viewBox="0 0 914.000000 609.000000"
 preserveAspectRatio="xMidYMid meet">

<g transform="translate(0.000000,609.000000) scale(0.100000,-0.100000)"
fill="#000000" stroke="none">
<path d="M1065 4310 c-246 -44 -466 -159 -646 -341 -176 -177 -289 -391 -323
-613 -4 -21 -8 -42 -11 -46 -12 -19 -16 -241 -6 -305 6 -39 14 -86 16 -105 11
-68 68 -236 106 -308 233 -442 701 -703 1164 -651 117 13 152 19 195 34 22 8
40 12 40 10 0 -4 92 32 174 69 204 93 421 308 533 528 57 111 97 221 109 297
22 146 25 329 8 401 -3 14 -8 39 -10 55 -11 90 -56 228 -107 330 -54 108 -120
198 -222 300 -176 177 -348 272 -600 332 -80 19 -340 27 -420 13z m394 -464
c22 -52 41 -96 41 -99 0 -2 10 -26 22 -53 12 -27 22 -51 23 -54 0 -5 99 -255
228 -575 124 -311 158 -397 169 -435 5 -19 13 -39 17 -45 5 -5 14 -32 21 -60
7 -27 16 -54 20 -58 17 -19 -3 -45 -38 -51 -48 -8 -167 -8 -225 0 -41 6 -47
10 -60 43 -26 63 -67 155 -84 186 -10 17 -16 30 -14 30 2 0 1 10 -3 23 l-7 22
-312 -2 -311 -3 -16 -45 c-20 -52 -30 -79 -69 -175 -35 -85 -42 -88 -206 -81
-134 7 -153 15 -131 58 8 14 21 50 31 79 14 46 34 100 95 254 4 11 21 54 38
95 17 41 54 138 83 215 28 77 55 145 59 150 4 6 13 28 20 50 7 22 18 54 25 70
8 17 44 107 80 200 37 94 73 184 80 200 7 17 18 44 25 60 7 17 20 45 29 63
l16 32 156 0 156 0 42 -94z"/>
<path d="M1181 3322 c-40 -103 -84 -212 -97 -243 -41 -96 -53 -90 177 -88 181
1 200 3 194 18 -4 9 -15 39 -25 66 -10 28 -37 97 -60 155 -22 58 -50 130 -62
160 -11 30 -24 59 -29 65 -5 5 -9 17 -9 26 0 50 -22 10 -89 -159z"/>
<path d="M3589 4089 c-9 -5 -74 -157 -149 -349 -11 -30 -29 -73 -39 -95 -10
-22 -29 -65 -41 -95 -12 -30 -34 -84 -50 -120 -15 -36 -33 -81 -40 -100 -7
-19 -21 -53 -30 -75 -48 -110 -85 -200 -122 -295 -22 -58 -44 -109 -49 -115
-5 -5 -9 -15 -9 -22 0 -7 -11 -36 -24 -65 -58 -128 -156 -363 -217 -520 l-19
-48 209 0 209 0 12 33 c7 17 18 46 26 62 7 17 26 67 43 110 16 44 41 107 54
140 l25 60 403 0 c396 0 404 0 407 -20 3 -17 48 -131 85 -215 6 -14 11 -27 12
-30 1 -3 7 -18 14 -35 7 -16 19 -46 26 -65 l12 -35 212 -2 c165 -2 212 0 208
10 -3 6 -23 55 -45 107 -21 52 -48 115 -59 140 -11 25 -24 56 -28 70 -4 14
-18 48 -31 75 -29 65 -102 234 -109 255 -1 3 -5 14 -10 25 -4 11 -16 40 -26
65 -10 25 -34 83 -54 130 -20 47 -52 122 -71 168 -19 46 -42 102 -53 125 -10
23 -56 132 -101 242 -97 236 -200 478 -206 484 -6 6 -365 7 -375 0z m207 -536
c12 -36 48 -129 66 -170 10 -23 18 -46 18 -52 0 -5 6 -22 14 -38 8 -15 31 -71
51 -123 20 -52 40 -104 45 -115 26 -64 38 -103 33 -109 -10 -9 -491 -7 -497 3
-3 4 29 91 70 192 137 333 153 374 163 402 12 31 29 35 37 10z"/>
<path d="M4922 4092 c-9 -3 -11 -235 -11 -953 l0 -949 183 0 183 0 -3 953 -2
952 -169 1 c-93 0 -174 -1 -181 -4z"/>
<path d="M5573 4093 c-10 -4 -13 -208 -13 -954 l0 -949 185 0 184 0 -2 953 -2
952 -170 2 c-93 1 -176 -1 -182 -4z"/>
<path d="M6675 3615 c-90 -20 -120 -31 -191 -70 -95 -53 -174 -123 -226 -201
-44 -66 -56 -89 -92 -179 -36 -92 -52 -237 -37 -345 19 -139 22 -149 79 -280
23 -54 94 -150 150 -202 74 -70 150 -114 251 -148 76 -26 108 -31 203 -33 112
-2 231 8 252 21 6 3 20 8 31 10 38 5 161 73 219 120 51 41 176 191 176 210 0
4 -66 36 -147 72 l-146 64 -16 -24 c-52 -80 -135 -144 -209 -161 -38 -8 -165
-13 -192 -6 -90 22 -167 69 -215 132 -34 43 -76 157 -66 174 6 9 123 12 509
11 341 0 503 3 507 10 13 21 17 234 6 280 -7 25 -14 55 -17 68 -8 37 -44 124
-70 169 -54 93 -184 210 -284 255 -139 63 -328 84 -475 53z m318 -309 c28 -14
68 -38 87 -55 40 -32 90 -123 93 -167 l2 -29 -338 -3 -338 -2 5 35 c13 78 70
158 143 201 101 59 249 68 346 20z"/>
<path d="M8373 3615 c-74 -16 -148 -55 -209 -108 -26 -23 -44 -33 -45 -25 -1
7 -2 34 -3 60 l-1 48 -180 0 -180 0 0 -700 0 -700 183 0 c182 0 182 0 183 23
1 12 3 207 4 432 1 226 6 426 10 445 28 127 119 193 274 196 47 1 92 -2 100
-6 9 -5 30 -14 47 -20 53 -19 99 -70 123 -135 22 -58 22 -70 23 -497 l1 -437
189 -1 188 0 0 480 c0 530 -3 566 -62 685 -35 71 -113 155 -183 195 -119 69
-319 97 -462 65z"/>
</g>
</svg>
